<?xml version="1.0" encoding="UTF-8" standalone="no"?>
<svg
   xmlns:dc="http://purl.org/dc/elements/1.1/"
   xmlns:cc="http://creativecommons.org/ns#"
   xmlns:rdf="http://www.w3.org/1999/02/22-rdf-syntax-ns#"
   xmlns:svg="http://www.w3.org/2000/svg"
   xmlns="http://www.w3.org/2000/svg"
   xmlns:sodipodi="http://sodipodi.sourceforge.net/DTD/sodipodi-0.dtd"
   xmlns:inkscape="http://www.inkscape.org/namespaces/inkscape"
   version="1.1"
   id="Layer_1"
   x="0px"
   y="0px"
   viewBox="0 0 50 50"
   enable-background="new 0 0 50 50"
   xml:space="preserve"
   sodipodi:docname="restore-down-light.svg"
   inkscape:version="1.0.2 (e86c870879, 2021-01-15, custom)"><metadata
   id="metadata30"><rdf:RDF><cc:Work
       rdf:about=""><dc:format>image/svg+xml</dc:format><dc:type
         rdf:resource="http://purl.org/dc/dcmitype/StillImage" /><dc:title></dc:title></cc:Work></rdf:RDF></metadata><defs
   id="defs28" /><sodipodi:namedview
   pagecolor="#ffffff"
   bordercolor="#666666"
   borderopacity="1"
   objecttolerance="10"
   gridtolerance="10"
   guidetolerance="10"
   inkscape:pageopacity="0"
   inkscape:pageshadow="2"
   inkscape:window-width="1920"
   inkscape:window-height="1001"
   id="namedview26"
   showgrid="false"
   inkscape:zoom="16.6"
   inkscape:cx="13.403614"
   inkscape:cy="25"
   inkscape:window-x="-9"
   inkscape:window-y="-9"
   inkscape:window-maximized="1"
   inkscape:current-layer="Layer_1" />
<path
   d="M15.243,19.194c0.553,0,1-0.447,1-1s-0.447-1-1-1h-3.77c-0.553,0-1,0.447-1,1v21.951c0,0.553,0.447,1,1,1h21.951  c0.553,0,1-0.447,1-1v-3.765c0-0.553-0.447-1-1-1s-1,0.447-1,1v2.765H12.474V19.194H15.243z"
   id="path21"
   style="fill:#eeeeee;fill-opacity:1" />
<path
   d="M41.474,9.146H19.522c-0.553,0-1,0.447-1,1v21.951c0,0.553,0.447,1,1,1h21.951c0.553,0,1-0.447,1-1V10.146  C42.474,9.593,42.026,9.146,41.474,9.146z M40.474,31.097H20.522V11.146h19.951V31.097z"
   id="path23"
   style="fill:#eeeeee;fill-opacity:1" />
</svg>
